<svg width="1651" height="86" viewBox="0 0 1651 86" fill="none" xmlns="http://www.w3.org/2000/svg">
<rect width="1651" height="86" rx="10" fill="white"/>
<g clip-path="url(#clip0_1567_15844)">
<rect x="18" y="33" width="20" height="25" fill="#DBDFF1"/>
<rect x="40" y="31" width="20" height="27" fill="#DBDFF1"/>
<rect x="62" y="30" width="20" height="28" fill="#DBDFF1"/>
<rect x="84" y="27" width="20" height="31" fill="#DBDFF1"/>
<rect x="106" y="27" width="21" height="31" fill="#DBDFF1"/>
<rect x="129" y="34" width="21" height="24" fill="#DBDFF1"/>
<rect x="152" y="27" width="21" height="31" fill="#DBDFF1"/>
<rect x="175" y="20" width="20" height="38" fill="#DBDFF1"/>
<rect x="197" y="22" width="20" height="36" fill="#DBDFF1"/>
<rect x="219" y="22" width="20" height="36" fill="#DBDFF1"/>
<rect x="241" y="27" width="20" height="31" fill="#DBDFF1"/>
<rect x="263" y="27" width="20" height="31" fill="#DBDFF1"/>
<rect x="285" y="20" width="20" height="38" fill="#DBDFF1"/>
<rect x="307" y="27" width="20" height="31" fill="#DBDFF1"/>
<rect x="329" y="34" width="20" height="24" fill="#DBDFF1"/>
<rect x="351" y="44" width="20" height="14" fill="#DBDFF1"/>
<rect x="373" y="39" width="20" height="19" fill="#DBDFF1"/>
<rect x="395" y="40" width="20" height="18" fill="#DBDFF1"/>
<rect x="417" y="44" width="20" height="14" fill="#DBDFF1"/>
<rect x="439" y="44" width="20" height="14" fill="#FF708B"/>
<rect x="461" y="42" width="20" height="16" fill="#FF708B"/>
<rect x="483" y="41" width="20" height="17" fill="#FF708B"/>
<rect x="505" y="39" width="20" height="19" fill="#FF708B"/>
<rect x="527" y="33" width="20" height="25" fill="#FF708B"/>
<rect x="549" y="31" width="20" height="27" fill="#FF708B"/>
<rect x="571" y="30" width="20" height="28" fill="#FF708B"/>
<rect x="593" y="44" width="20" height="14" fill="#FF708B"/>
<rect x="615" y="44" width="21" height="14" fill="#FF708B"/>
<rect x="638" y="44" width="21" height="14" fill="#FF708B"/>
<rect x="661" y="34" width="21" height="24" fill="#FF708B"/>
<rect x="684" y="44" width="21" height="14" fill="#FF708B"/>
<rect x="707" y="40" width="20" height="18" fill="#DBDFF1"/>
<rect x="729" y="41" width="20" height="17" fill="#DBDFF1"/>
<rect x="751" y="44" width="20" height="14" fill="#DBDFF1"/>
<rect x="773" y="44" width="20" height="14" fill="#DBDFF1"/>
<rect x="795" y="40" width="20" height="18" fill="#DBDFF1"/>
<rect x="817" y="44" width="20" height="14" fill="#DBDFF1"/>
<rect x="839" y="34" width="20" height="24" fill="#DBDFF1"/>
<rect x="861" y="44" width="20" height="14" fill="#DBDFF1"/>
<rect x="883" y="39" width="20" height="19" fill="#DBDFF1"/>
<rect x="905" y="40" width="20" height="18" fill="#DBDFF1"/>
<rect x="927" y="44" width="20" height="14" fill="#DBDFF1"/>
<rect x="949" y="44" width="20" height="14" fill="#DBDFF1"/>
<rect x="971" y="42" width="20" height="16" fill="#DBDFF1"/>
<rect x="993" y="41" width="20" height="17" fill="#DBDFF1"/>
<rect x="1015" y="39" width="20" height="19" fill="#DBDFF1"/>
<rect x="1037" y="39" width="20" height="19" fill="#DBDFF1"/>
<rect x="1059" y="33" width="20" height="25" fill="#DBDFF1"/>
<rect x="1081" y="31" width="20" height="27" fill="#DBDFF1"/>
<rect x="1103" y="30" width="20" height="28" fill="#DBDFF1"/>
<rect x="1125" y="27" width="20" height="31" fill="#DBDFF1"/>
<rect x="1147" y="39" width="21" height="19" fill="#DBDFF1"/>
<rect x="1170" y="39" width="21" height="19" fill="#DBDFF1"/>
<rect x="1193" y="45" width="21" height="13" fill="#DBDFF1"/>
<rect x="1216" y="39" width="21" height="19" fill="#DBDFF1"/>
<rect x="1239" y="36" width="20" height="22" fill="#DBDFF1"/>
<rect x="1261" y="37" width="20" height="21" fill="#DBDFF1"/>
<rect x="1283" y="39" width="20" height="19" fill="#DBDFF1"/>
<rect x="1305" y="39" width="20" height="19" fill="#DBDFF1"/>
<rect x="1327" y="36" width="20" height="22" fill="#DBDFF1"/>
<rect x="1349" y="39" width="20" height="19" fill="#DBDFF1"/>
<rect x="1371" y="45" width="20" height="13" fill="#DBDFF1"/>
<rect x="1393" y="39" width="20" height="19" fill="#DBDFF1"/>
<rect x="1415" y="34" width="20" height="24" fill="#DBDFF1"/>
<rect x="1437" y="36" width="20" height="22" fill="#DBDFF1"/>
<rect x="1459" y="36" width="20" height="22" fill="#DBDFF1"/>
<rect x="1481" y="36" width="20" height="22" fill="#DBDFF1"/>
<rect x="1503" y="36" width="20" height="22" fill="#DBDFF1"/>
<rect x="1525" y="39" width="20" height="19" fill="#DBDFF1"/>
<rect x="1547" y="49" width="20" height="9" fill="#DBDFF1"/>
<rect x="1569" y="49" width="20" height="9" fill="#DBDFF1"/>
<rect x="1591" y="48" width="20" height="10" fill="#DBDFF1"/>
<rect x="1613" y="47" width="20" height="11" fill="#DBDFF1"/>
</g>
<rect x="29" y="60" width="1593" height="6" rx="3" fill="#8676FF"/>
<rect x="29" y="60" width="723.94" height="6" rx="3" fill="#FF708B"/>
<rect x="29" y="60" width="240.295" height="6" rx="3" fill="#FFA63F"/>
<defs>
<clipPath id="clip0_1567_15844">
<rect width="1615" height="38" fill="white" transform="translate(18 20)"/>
</clipPath>
</defs>
</svg>
